STARTFONT 2.1
FONT -FreeType-Coding Font Tobi-Medium-R-Normal--16-120-96-96-P-48-ISO10646-1
SIZE 12 96 96
FONTBOUNDINGBOX 7 11 0 -2
COMMENT "Generated by fontforge, http://fontforge.sourceforge.net"
STARTPROPERTIES 21
POINT_SIZE 120
PIXEL_SIZE 16
RESOLUTION_X 96
RESOLUTION_Y 96
AVERAGE_WIDTH 48
SPACING "P"
FOUNDRY "FreeType"
FAMILY_NAME "Coding Font Tobi"
CHARSET_REGISTRY "ISO10646"
CHARSET_ENCODING "1"
WEIGHT_NAME "Medium"
SLANT "R"
SETWIDTH_NAME "Normal"
COPYRIGHT "Copyright (c) tobi, 2006. All rights reserved."
_TTF_PSNAME "CodingFontTobi"
_OTF_FONTFILE "cft.ttf"
_GBDFED_INFO "Edited with gbdfed 1.1."
WEIGHT 10
RESOLUTION 132
X_HEIGHT 0
QUAD_WIDTH 7
ENDPROPERTIES
CHARS 251
STARTCHAR char0
ENCODING 0
SWIDTH 39 0
DWIDTH 7 0
BBX 3 7 2 0
BITMAP
E0
00
E0
00
E0
00
E0
ENDCHAR
STARTCHAR char1
ENCODING 1
SWIDTH 39 0
DWIDTH 7 0
BBX 3 7 2 0
BITMAP
E0
00
E0
00
E0
00
E0
ENDCHAR
STARTCHAR char2
ENCODING 2
SWIDTH 39 0
DWIDTH 7 0
BBX 3 7 2 0
BITMAP
E0
00
E0
00
E0
00
E0
ENDCHAR
STARTCHAR char3
ENCODING 3
SWIDTH 39 0
DWIDTH 7 0
BBX 3 7 2 0
BITMAP
E0
00
E0
00
E0
00
E0
ENDCHAR
STARTCHAR char4
ENCODING 4
SWIDTH 39 0
DWIDTH 7 0
BBX 3 7 2 0
BITMAP
E0
00
E0
00
E0
00
E0
ENDCHAR
STARTCHAR char5
ENCODING 5
SWIDTH 39 0
DWIDTH 7 0
BBX 3 7 2 0
BITMAP
E0
00
E0
00
E0
00
E0
ENDCHAR
STARTCHAR char6
ENCODING 6
SWIDTH 39 0
DWIDTH 7 0
BBX 3 7 2 0
BITMAP
E0
00
E0
00
E0
00
E0
ENDCHAR
STARTCHAR char7
ENCODING 7
SWIDTH 39 0
DWIDTH 7 0
BBX 3 7 2 0
BITMAP
E0
00
E0
00
E0
00
E0
ENDCHAR
STARTCHAR char8
ENCODING 8
SWIDTH 39 0
DWIDTH 7 0
BBX 3 7 2 0
BITMAP
E0
00
E0
00
E0
00
E0
ENDCHAR
STARTCHAR char9
ENCODING 9
SWIDTH 39 0
DWIDTH 7 0
BBX 3 7 2 0
BITMAP
E0
00
E0
00
E0
00
E0
ENDCHAR
STARTCHAR char10
ENCODING 10
SWIDTH 39 0
DWIDTH 7 0
BBX 3 7 2 0
BITMAP
E0
00
E0
00
E0
00
E0
ENDCHAR
STARTCHAR char11
ENCODING 11
SWIDTH 39 0
DWIDTH 7 0
BBX 3 7 2 0
BITMAP
E0
00
E0
00
E0
00
E0
ENDCHAR
STARTCHAR char12
ENCODING 12
SWIDTH 39 0
DWIDTH 7 0
BBX 3 7 2 0
BITMAP
E0
00
E0
00
E0
00
E0
ENDCHAR
STARTCHAR char13
ENCODING 13
SWIDTH 39 0
DWIDTH 7 0
BBX 3 7 2 0
BITMAP
E0
00
E0
00
E0
00
E0
ENDCHAR
STARTCHAR char14
ENCODING 14
SWIDTH 39 0
DWIDTH 7 0
BBX 3 7 2 0
BITMAP
E0
00
E0
00
E0
00
E0
ENDCHAR
STARTCHAR char15
ENCODING 15
SWIDTH 39 0
DWIDTH 7 0
BBX 3 7 2 0
BITMAP
E0
00
E0
00
E0
00
E0
ENDCHAR
STARTCHAR char16
ENCODING 16
SWIDTH 39 0
DWIDTH 7 0
BBX 3 7 2 0
BITMAP
E0
00
E0
00
E0
00
E0
ENDCHAR
STARTCHAR char17
ENCODING 17
SWIDTH 39 0
DWIDTH 7 0
BBX 3 7 2 0
BITMAP
E0
00
E0
00
E0
00
E0
ENDCHAR
STARTCHAR char18
ENCODING 18
SWIDTH 39 0
DWIDTH 7 0
BBX 3 7 2 0
BITMAP
E0
00
E0
00
E0
00
E0
ENDCHAR
STARTCHAR char19
ENCODING 19
SWIDTH 39 0
DWIDTH 7 0
BBX 3 7 2 0
BITMAP
E0
00
E0
00
E0
00
E0
ENDCHAR
STARTCHAR char20
ENCODING 20
SWIDTH 39 0
DWIDTH 7 0
BBX 3 7 2 0
BITMAP
E0
00
E0
00
E0
00
E0
ENDCHAR
STARTCHAR char21
ENCODING 21
SWIDTH 39 0
DWIDTH 7 0
BBX 3 7 2 0
BITMAP
E0
00
E0
00
E0
00
E0
ENDCHAR
STARTCHAR char22
ENCODING 22
SWIDTH 39 0
DWIDTH 7 0
BBX 3 7 2 0
BITMAP
E0
00
E0
00
E0
00
E0
ENDCHAR
STARTCHAR char23
ENCODING 23
SWIDTH 39 0
DWIDTH 7 0
BBX 3 7 2 0
BITMAP
E0
00
E0
00
E0
00
E0
ENDCHAR
STARTCHAR char24
ENCODING 24
SWIDTH 39 0
DWIDTH 7 0
BBX 3 7 2 0
BITMAP
E0
00
E0
00
E0
00
E0
ENDCHAR
STARTCHAR char25
ENCODING 25
SWIDTH 39 0
DWIDTH 7 0
BBX 3 7 2 0
BITMAP
E0
00
E0
00
E0
00
E0
ENDCHAR
STARTCHAR char26
ENCODING 26
SWIDTH 39 0
DWIDTH 7 0
BBX 3 7 2 0
BITMAP
E0
00
E0
00
E0
00
E0
ENDCHAR
STARTCHAR char27
ENCODING 27
SWIDTH 39 0
DWIDTH 7 0
BBX 3 7 2 0
BITMAP
E0
00
E0
00
E0
00
E0
ENDCHAR
STARTCHAR char28
ENCODING 28
SWIDTH 39 0
DWIDTH 7 0
BBX 3 7 2 0
BITMAP
E0
00
E0
00
E0
00
E0
ENDCHAR
STARTCHAR char29
ENCODING 29
SWIDTH 39 0
DWIDTH 7 0
BBX 3 7 2 0
BITMAP
E0
00
E0
00
E0
00
E0
ENDCHAR
STARTCHAR char30
ENCODING 30
SWIDTH 39 0
DWIDTH 7 0
BBX 3 7 2 0
BITMAP
E0
00
E0
00
E0
00
E0
ENDCHAR
STARTCHAR char31
ENCODING 31
SWIDTH 39 0
DWIDTH 7 0
BBX 3 7 2 0
BITMAP
E0
00
E0
00
E0
00
E0
ENDCHAR
STARTCHAR char32
ENCODING 32
SWIDTH 0 0
DWIDTH 7 0
BBX 1 1 6 -2
BITMAP
00
ENDCHAR
STARTCHAR char33
ENCODING 33
SWIDTH 39 0
DWIDTH 7 0
BBX 2 9 3 -1
BITMAP
80
80
80
80
80
80
00
C0
C0
ENDCHAR
STARTCHAR char34
ENCODING 34
SWIDTH 39 0
DWIDTH 7 0
BBX 5 3 1 6
BITMAP
D8
D8
D8
ENDCHAR
STARTCHAR char35
ENCODING 35
SWIDTH 39 0
DWIDTH 7 0
BBX 6 9 1 -1
BITMAP
48
48
FC
48
48
48
FC
48
48
ENDCHAR
STARTCHAR char36
ENCODING 36
SWIDTH 39 0
DWIDTH 7 0
BBX 5 10 1 -1
BITMAP
20
20
78
80
70
08
08
F0
20
20
ENDCHAR
STARTCHAR char37
ENCODING 37
SWIDTH 39 0
DWIDTH 7 0
BBX 6 8 1 0
BITMAP
40
A4
48
10
20
48
94
08
ENDCHAR
STARTCHAR char38
ENCODING 38
SWIDTH 39 0
DWIDTH 7 0
BBX 6 8 1 0
BITMAP
60
90
90
64
94
88
94
64
ENDCHAR
STARTCHAR char39
ENCODING 39
SWIDTH 39 0
DWIDTH 7 0
BBX 2 3 3 6
BITMAP
C0
C0
C0
ENDCHAR
STARTCHAR char40
ENCODING 40
SWIDTH 39 0
DWIDTH 7 0
BBX 3 11 2 -2
BITMAP
20
40
40
80
80
80
80
80
40
40
20
ENDCHAR
STARTCHAR char41
ENCODING 41
SWIDTH 39 0
DWIDTH 7 0
BBX 3 11 2 -2
BITMAP
80
40
40
20
20
20
20
20
40
40
80
ENDCHAR
STARTCHAR char42
ENCODING 42
SWIDTH 39 0
DWIDTH 7 0
BBX 5 5 1 1
BITMAP
20
A8
70
A8
20
ENDCHAR
STARTCHAR char43
ENCODING 43
SWIDTH 39 0
DWIDTH 7 0
BBX 5 5 1 1
BITMAP
20
20
F8
20
20
ENDCHAR
STARTCHAR char44
ENCODING 44
SWIDTH 39 0
DWIDTH 7 0
BBX 3 4 2 -2
BITMAP
60
60
60
C0
ENDCHAR
STARTCHAR char45
ENCODING 45
SWIDTH 39 0
DWIDTH 7 0
BBX 5 1 1 3
BITMAP
F8
ENDCHAR
STARTCHAR char46
ENCODING 46
SWIDTH 39 0
DWIDTH 7 0
BBX 2 2 3 0
BITMAP
C0
C0
ENDCHAR
STARTCHAR char47
ENCODING 47
SWIDTH 39 0
DWIDTH 7 0
BBX 4 8 2 0
BITMAP
10
10
20
20
40
40
80
80
ENDCHAR
STARTCHAR char48
ENCODING 48
SWIDTH 39 0
DWIDTH 7 0
BBX 5 8 1 0
BITMAP
70
88
88
A8
A8
88
88
70
ENDCHAR
STARTCHAR char49
ENCODING 49
SWIDTH 39 0
DWIDTH 7 0
BBX 5 8 1 0
BITMAP
20
60
A0
20
20
20
20
F8
ENDCHAR
STARTCHAR char50
ENCODING 50
SWIDTH 39 0
DWIDTH 7 0
BBX 5 8 1 0
BITMAP
70
88
08
08
70
80
80
F8
ENDCHAR
STARTCHAR char51
ENCODING 51
SWIDTH 39 0
DWIDTH 7 0
BBX 5 8 1 0
BITMAP
70
88
08
30
08
08
88
70
ENDCHAR
STARTCHAR char52
ENCODING 52
SWIDTH 39 0
DWIDTH 7 0
BBX 5 8 1 0
BITMAP
80
80
90
90
F8
10
10
10
ENDCHAR
STARTCHAR char53
ENCODING 53
SWIDTH 39 0
DWIDTH 7 0
BBX 5 8 1 0
BITMAP
F8
80
80
F0
08
08
88
70
ENDCHAR
STARTCHAR char54
ENCODING 54
SWIDTH 39 0
DWIDTH 7 0
BBX 5 8 1 0
BITMAP
70
88
80
F0
88
88
88
70
ENDCHAR
STARTCHAR char55
ENCODING 55
SWIDTH 39 0
DWIDTH 7 0
BBX 5 8 1 0
BITMAP
F8
08
08
10
10
20
20
20
ENDCHAR
STARTCHAR char56
ENCODING 56
SWIDTH 39 0
DWIDTH 7 0
BBX 5 8 1 0
BITMAP
70
88
88
70
88
88
88
70
ENDCHAR
STARTCHAR char57
ENCODING 57
SWIDTH 39 0
DWIDTH 7 0
BBX 5 8 1 0
BITMAP
70
88
88
88
78
08
88
70
ENDCHAR
STARTCHAR char58
ENCODING 58
SWIDTH 39 0
DWIDTH 7 0
BBX 2 5 3 1
BITMAP
C0
C0
00
C0
C0
ENDCHAR
STARTCHAR char59
ENCODING 59
SWIDTH 39 0
DWIDTH 7 0
BBX 3 7 2 -2
BITMAP
60
60
00
60
60
60
C0
ENDCHAR
STARTCHAR char60
ENCODING 60
SWIDTH 39 0
DWIDTH 7 0
BBX 4 7 2 0
BITMAP
10
20
40
80
40
20
10
ENDCHAR
STARTCHAR char61
ENCODING 61
SWIDTH 39 0
DWIDTH 7 0
BBX 5 3 1 2
BITMAP
F8
00
F8
ENDCHAR
STARTCHAR char62
ENCODING 62
SWIDTH 39 0
DWIDTH 7 0
BBX 4 7 2 0
BITMAP
80
40
20
10
20
40
80
ENDCHAR
STARTCHAR char63
ENCODING 63
SWIDTH 39 0
DWIDTH 7 0
BBX 5 9 1 -1
BITMAP
70
88
08
10
20
20
00
30
30
ENDCHAR
STARTCHAR char64
ENCODING 64
SWIDTH 39 0
DWIDTH 7 0
BBX 6 10 1 -1
BITMAP
78
84
84
B4
B4
B4
B8
80
80
78
ENDCHAR
STARTCHAR char65
ENCODING 65
SWIDTH 39 0
DWIDTH 7 0
BBX 5 8 1 0
BITMAP
70
88
88
88
F8
88
88
88
ENDCHAR
STARTCHAR char66
ENCODING 66
SWIDTH 39 0
DWIDTH 7 0
BBX 5 8 1 0
BITMAP
E0
90
90
F0
88
88
88
F0
ENDCHAR
STARTCHAR char67
ENCODING 67
SWIDTH 39 0
DWIDTH 7 0
BBX 5 8 1 0
BITMAP
78
80
80
80
80
80
80
78
ENDCHAR
STARTCHAR char68
ENCODING 68
SWIDTH 39 0
DWIDTH 7 0
BBX 5 8 1 0
BITMAP
E0
90
88
88
88
88
90
E0
ENDCHAR
STARTCHAR char69
ENCODING 69
SWIDTH 39 0
DWIDTH 7 0
BBX 5 8 1 0
BITMAP
F8
80
80
F0
80
80
80
F8
ENDCHAR
STARTCHAR char70
ENCODING 70
SWIDTH 39 0
DWIDTH 7 0
BBX 5 8 1 0
BITMAP
F8
80
80
F0
80
80
80
80
ENDCHAR
STARTCHAR char71
ENCODING 71
SWIDTH 39 0
DWIDTH 7 0
BBX 5 8 1 0
BITMAP
70
80
80
98
88
88
88
78
ENDCHAR
STARTCHAR char72
ENCODING 72
SWIDTH 39 0
DWIDTH 7 0
BBX 5 8 1 0
BITMAP
88
88
88
F8
88
88
88
88
ENDCHAR
STARTCHAR char73
ENCODING 73
SWIDTH 39 0
DWIDTH 7 0
BBX 3 8 2 0
BITMAP
E0
40
40
40
40
40
40
E0
ENDCHAR
STARTCHAR char74
ENCODING 74
SWIDTH 39 0
DWIDTH 7 0
BBX 4 8 1 0
BITMAP
70
10
10
10
10
10
10
E0
ENDCHAR
STARTCHAR char75
ENCODING 75
SWIDTH 39 0
DWIDTH 7 0
BBX 5 8 1 0
BITMAP
88
90
A0
C0
A0
90
88
88
ENDCHAR
STARTCHAR char76
ENCODING 76
SWIDTH 39 0
DWIDTH 7 0
BBX 5 8 1 0
BITMAP
80
80
80
80
80
80
80
F8
ENDCHAR
STARTCHAR char77
ENCODING 77
SWIDTH 39 0
DWIDTH 7 0
BBX 5 8 1 0
BITMAP
88
D8
A8
A8
A8
88
88
88
ENDCHAR
STARTCHAR char78
ENCODING 78
SWIDTH 39 0
DWIDTH 7 0
BBX 5 8 1 0
BITMAP
88
C8
C8
A8
A8
98
98
88
ENDCHAR
STARTCHAR char79
ENCODING 79
SWIDTH 39 0
DWIDTH 7 0
BBX 5 8 1 0
BITMAP
70
88
88
88
88
88
88
70
ENDCHAR
STARTCHAR char80
ENCODING 80
SWIDTH 39 0
DWIDTH 7 0
BBX 5 8 1 0
BITMAP
F0
88
88
88
F0
80
80
80
ENDCHAR
STARTCHAR char81
ENCODING 81
SWIDTH 39 0
DWIDTH 7 0
BBX 5 10 1 -2
BITMAP
70
88
88
88
88
88
88
70
20
18
ENDCHAR
STARTCHAR char82
ENCODING 82
SWIDTH 39 0
DWIDTH 7 0
BBX 5 8 1 0
BITMAP
E0
90
90
90
E0
90
88
88
ENDCHAR
STARTCHAR char83
ENCODING 83
SWIDTH 39 0
DWIDTH 7 0
BBX 5 8 1 0
BITMAP
78
80
80
70
08
08
08
F0
ENDCHAR
STARTCHAR char84
ENCODING 84
SWIDTH 39 0
DWIDTH 7 0
BBX 5 8 1 0
BITMAP
F8
20
20
20
20
20
20
20
ENDCHAR
STARTCHAR char85
ENCODING 85
SWIDTH 39 0
DWIDTH 7 0
BBX 5 8 1 0
BITMAP
88
88
88
88
88
88
88
70
ENDCHAR
STARTCHAR char86
ENCODING 86
SWIDTH 39 0
DWIDTH 7 0
BBX 5 8 1 0
BITMAP
88
88
88
50
50
50
20
20
ENDCHAR
STARTCHAR char87
ENCODING 87
SWIDTH 39 0
DWIDTH 7 0
BBX 5 8 1 0
BITMAP
88
88
88
A8
A8
A8
D8
88
ENDCHAR
STARTCHAR char88
ENCODING 88
SWIDTH 39 0
DWIDTH 7 0
BBX 5 8 1 0
BITMAP
88
88
50
20
20
50
88
88
ENDCHAR
STARTCHAR char89
ENCODING 89
SWIDTH 39 0
DWIDTH 7 0
BBX 5 8 1 0
BITMAP
88
88
88
50
20
20
20
20
ENDCHAR
STARTCHAR char90
ENCODING 90
SWIDTH 39 0
DWIDTH 7 0
BBX 5 8 1 0
BITMAP
F8
08
10
20
40
80
80
F8
ENDCHAR
STARTCHAR char91
ENCODING 91
SWIDTH 39 0
DWIDTH 7 0
BBX 3 11 2 -2
BITMAP
E0
80
80
80
80
80
80
80
80
80
E0
ENDCHAR
STARTCHAR char92
ENCODING 92
SWIDTH 39 0
DWIDTH 7 0
BBX 4 8 2 0
BITMAP
80
80
40
40
20
20
10
10
ENDCHAR
STARTCHAR char93
ENCODING 93
SWIDTH 39 0
DWIDTH 7 0
BBX 3 11 2 -2
BITMAP
E0
20
20
20
20
20
20
20
20
20
E0
ENDCHAR
STARTCHAR char94
ENCODING 94
SWIDTH 39 0
DWIDTH 7 0
BBX 5 3 1 5
BITMAP
20
50
88
ENDCHAR
STARTCHAR char95
ENCODING 95
SWIDTH 39 0
DWIDTH 7 0
BBX 5 1 1 0
BITMAP
F8
ENDCHAR
STARTCHAR char96
ENCODING 96
SWIDTH 39 0
DWIDTH 7 0
BBX 4 3 2 6
BITMAP
C0
60
30
ENDCHAR
STARTCHAR char97
ENCODING 97
SWIDTH 39 0
DWIDTH 7 0
BBX 5 6 1 0
BITMAP
70
08
78
88
88
78
ENDCHAR
STARTCHAR char98
ENCODING 98
SWIDTH 39 0
DWIDTH 7 0
BBX 5 8 1 0
BITMAP
80
80
F0
88
88
88
88
F0
ENDCHAR
STARTCHAR char99
ENCODING 99
SWIDTH 39 0
DWIDTH 7 0
BBX 5 6 1 0
BITMAP
78
80
80
80
80
78
ENDCHAR
STARTCHAR char100
ENCODING 100
SWIDTH 39 0
DWIDTH 7 0
BBX 5 8 1 0
BITMAP
08
08
78
88
88
88
88
78
ENDCHAR
STARTCHAR char101
ENCODING 101
SWIDTH 39 0
DWIDTH 7 0
BBX 5 6 1 0
BITMAP
70
88
F8
80
80
78
ENDCHAR
STARTCHAR char102
ENCODING 102
SWIDTH 39 0
DWIDTH 7 0
BBX 5 8 1 0
BITMAP
38
40
40
F0
40
40
40
40
ENDCHAR
STARTCHAR char103
ENCODING 103
SWIDTH 39 0
DWIDTH 7 0
BBX 5 8 1 -2
BITMAP
78
88
88
88
88
78
08
F0
ENDCHAR
STARTCHAR char104
ENCODING 104
SWIDTH 39 0
DWIDTH 7 0
BBX 5 8 1 0
BITMAP
80
80
F0
88
88
88
88
88
ENDCHAR
STARTCHAR char105
ENCODING 105
SWIDTH 39 0
DWIDTH 7 0
BBX 3 8 2 0
BITMAP
40
40
00
C0
40
40
40
E0
ENDCHAR
STARTCHAR char106
ENCODING 106
SWIDTH 39 0
DWIDTH 7 0
BBX 4 10 1 -2
BITMAP
10
10
00
30
10
10
10
10
10
E0
ENDCHAR
STARTCHAR char107
ENCODING 107
SWIDTH 39 0
DWIDTH 7 0
BBX 5 8 1 0
BITMAP
80
80
90
A0
C0
A0
90
88
ENDCHAR
STARTCHAR char108
ENCODING 108
SWIDTH 39 0
DWIDTH 7 0
BBX 3 8 2 0
BITMAP
80
80
80
80
80
80
80
60
ENDCHAR
STARTCHAR char109
ENCODING 109
SWIDTH 39 0
DWIDTH 7 0
BBX 5 6 1 0
BITMAP
D0
A8
A8
A8
88
88
ENDCHAR
STARTCHAR char110
ENCODING 110
SWIDTH 39 0
DWIDTH 7 0
BBX 5 6 1 0
BITMAP
F0
88
88
88
88
88
ENDCHAR
STARTCHAR char111
ENCODING 111
SWIDTH 39 0
DWIDTH 7 0
BBX 5 6 1 0
BITMAP
70
88
88
88
88
70
ENDCHAR
STARTCHAR char112
ENCODING 112
SWIDTH 39 0
DWIDTH 7 0
BBX 5 8 1 -2
BITMAP
F0
88
88
88
88
F0
80
80
ENDCHAR
STARTCHAR char113
ENCODING 113
SWIDTH 39 0
DWIDTH 7 0
BBX 5 8 1 -2
BITMAP
78
88
88
88
88
78
08
08
ENDCHAR
STARTCHAR char114
ENCODING 114
SWIDTH 39 0
DWIDTH 7 0
BBX 5 6 1 0
BITMAP
B8
C0
80
80
80
80
ENDCHAR
STARTCHAR char115
ENCODING 115
SWIDTH 39 0
DWIDTH 7 0
BBX 5 6 1 0
BITMAP
78
80
70
08
08
F0
ENDCHAR
STARTCHAR char116
ENCODING 116
SWIDTH 39 0
DWIDTH 7 0
BBX 5 8 1 0
BITMAP
40
40
F0
40
40
40
40
38
ENDCHAR
STARTCHAR char117
ENCODING 117
SWIDTH 39 0
DWIDTH 7 0
BBX 5 6 1 0
BITMAP
88
88
88
88
88
70
ENDCHAR
STARTCHAR char118
ENCODING 118
SWIDTH 39 0
DWIDTH 7 0
BBX 5 6 1 0
BITMAP
88
88
50
50
20
20
ENDCHAR
STARTCHAR char119
ENCODING 119
SWIDTH 39 0
DWIDTH 7 0
BBX 5 6 1 0
BITMAP
88
88
A8
A8
D8
88
ENDCHAR
STARTCHAR char120
ENCODING 120
SWIDTH 39 0
DWIDTH 7 0
BBX 5 6 1 0
BITMAP
88
50
20
20
50
88
ENDCHAR
STARTCHAR char121
ENCODING 121
SWIDTH 39 0
DWIDTH 7 0
BBX 5 8 1 -2
BITMAP
88
88
88
88
88
78
08
F0
ENDCHAR
STARTCHAR char122
ENCODING 122
SWIDTH 39 0
DWIDTH 7 0
BBX 5 6 1 0
BITMAP
F8
10
20
40
80
F8
ENDCHAR
STARTCHAR char123
ENCODING 123
SWIDTH 39 0
DWIDTH 7 0
BBX 5 11 1 -2
BITMAP
18
20
20
20
20
C0
20
20
20
20
18
ENDCHAR
STARTCHAR char124
ENCODING 124
SWIDTH 39 0
DWIDTH 7 0
BBX 1 9 3 -1
BITMAP
80
80
80
80
80
80
80
80
80
ENDCHAR
STARTCHAR char125
ENCODING 125
SWIDTH 39 0
DWIDTH 7 0
BBX 5 11 1 -2
BITMAP
C0
20
20
20
20
18
20
20
20
20
C0
ENDCHAR
STARTCHAR char126
ENCODING 126
SWIDTH 39 0
DWIDTH 7 0
BBX 6 4 1 2
BITMAP
44
A4
94
88
ENDCHAR
STARTCHAR char127
ENCODING 127
SWIDTH 39 0
DWIDTH 7 0
BBX 3 7 2 0
BITMAP
E0
00
E0
00
E0
00
E0
ENDCHAR
STARTCHAR char160
ENCODING 160
SWIDTH 39 0
DWIDTH 7 0
BBX 3 7 2 0
BITMAP
E0
00
E0
00
E0
00
E0
ENDCHAR
STARTCHAR char161
ENCODING 161
SWIDTH 39 0
DWIDTH 7 0
BBX 1 9 3 0
BITMAP
80
80
00
80
80
80
80
80
80
ENDCHAR
STARTCHAR char162
ENCODING 162
SWIDTH 39 0
DWIDTH 7 0
BBX 4 7 1 0
BITMAP
20
70
A0
A0
A0
70
20
ENDCHAR
STARTCHAR char163
ENCODING 163
SWIDTH 39 0
DWIDTH 7 0
BBX 5 8 1 0
BITMAP
30
48
40
E0
40
40
80
F8
ENDCHAR
STARTCHAR char164
ENCODING 164
SWIDTH 39 0
DWIDTH 7 0
BBX 5 5 1 1
BITMAP
88
70
50
70
88
ENDCHAR
STARTCHAR char165
ENCODING 165
SWIDTH 39 0
DWIDTH 7 0
BBX 5 8 1 0
BITMAP
88
88
50
20
70
20
70
20
ENDCHAR
STARTCHAR char166
ENCODING 166
SWIDTH 39 0
DWIDTH 7 0
BBX 1 8 3 0
BITMAP
80
80
80
00
00
80
80
80
ENDCHAR
STARTCHAR char167
ENCODING 167
SWIDTH 39 0
DWIDTH 7 0
BBX 4 9 2 0
BITMAP
60
90
80
60
90
60
10
90
60
ENDCHAR
STARTCHAR char168
ENCODING 168
SWIDTH 39 0
DWIDTH 7 0
BBX 3 1 2 8
BITMAP
A0
ENDCHAR
STARTCHAR char169
ENCODING 169
SWIDTH 39 0
DWIDTH 7 0
BBX 6 7 1 2
BITMAP
78
84
B4
A4
B4
84
78
ENDCHAR
STARTCHAR char170
ENCODING 170
SWIDTH 39 0
DWIDTH 7 0
BBX 4 5 2 4
BITMAP
60
10
70
90
70
ENDCHAR
STARTCHAR char171
ENCODING 171
SWIDTH 39 0
DWIDTH 7 0
BBX 6 5 1 1
BITMAP
24
48
90
48
24
ENDCHAR
STARTCHAR char172
ENCODING 172
SWIDTH 39 0
DWIDTH 7 0
BBX 5 3 1 3
BITMAP
F8
08
08
ENDCHAR
STARTCHAR char173
ENCODING 173
SWIDTH 39 0
DWIDTH 7 0
BBX 3 1 2 3
BITMAP
E0
ENDCHAR
STARTCHAR char174
ENCODING 174
SWIDTH 39 0
DWIDTH 7 0
BBX 6 7 1 2
BITMAP
78
84
B4
A4
A4
84
78
ENDCHAR
STARTCHAR char175
ENCODING 175
SWIDTH 39 0
DWIDTH 7 0
BBX 5 1 1 8
BITMAP
F8
ENDCHAR
STARTCHAR char176
ENCODING 176
SWIDTH 39 0
DWIDTH 7 0
BBX 4 4 2 5
BITMAP
60
90
90
60
ENDCHAR
STARTCHAR char177
ENCODING 177
SWIDTH 39 0
DWIDTH 7 0
BBX 5 6 1 1
BITMAP
20
20
F8
20
20
F8
ENDCHAR
STARTCHAR char178
ENCODING 178
SWIDTH 39 0
DWIDTH 7 0
BBX 3 5 2 4
BITMAP
C0
20
40
80
E0
ENDCHAR
STARTCHAR char179
ENCODING 179
SWIDTH 39 0
DWIDTH 7 0
BBX 3 5 2 4
BITMAP
E0
20
60
20
E0
ENDCHAR
STARTCHAR char180
ENCODING 180
SWIDTH 39 0
DWIDTH 7 0
BBX 3 3 2 6
BITMAP
20
40
80
ENDCHAR
STARTCHAR char181
ENCODING 181
SWIDTH 39 0
DWIDTH 7 0
BBX 5 8 1 -2
BITMAP
88
88
88
88
88
F0
80
80
ENDCHAR
STARTCHAR char182
ENCODING 182
SWIDTH 39 0
DWIDTH 7 0
BBX 5 8 1 0
BITMAP
F8
D0
D0
50
50
50
50
50
ENDCHAR
STARTCHAR char183
ENCODING 183
SWIDTH 39 0
DWIDTH 7 0
BBX 2 2 3 2
BITMAP
C0
C0
ENDCHAR
STARTCHAR char184
ENCODING 184
SWIDTH 39 0
DWIDTH 7 0
BBX 2 3 3 -1
BITMAP
40
40
80
ENDCHAR
STARTCHAR char185
ENCODING 185
SWIDTH 39 0
DWIDTH 7 0
BBX 3 5 2 4
BITMAP
40
C0
40
40
E0
ENDCHAR
STARTCHAR char186
ENCODING 186
SWIDTH 39 0
DWIDTH 7 0
BBX 3 4 2 5
BITMAP
40
A0
A0
40
ENDCHAR
STARTCHAR char187
ENCODING 187
SWIDTH 39 0
DWIDTH 7 0
BBX 6 5 1 1
BITMAP
90
48
24
48
90
ENDCHAR
STARTCHAR char188
ENCODING 188
SWIDTH 39 0
DWIDTH 7 0
BBX 6 9 1 -1
BITMAP
40
C0
44
48
54
2C
54
9C
04
ENDCHAR
STARTCHAR char189
ENCODING 189
SWIDTH 39 0
DWIDTH 7 0
BBX 6 9 1 -1
BITMAP
40
C0
44
48
50
2C
44
88
0C
ENDCHAR
STARTCHAR char190
ENCODING 190
SWIDTH 39 0
DWIDTH 7 0
BBX 6 9 1 -1
BITMAP
C0
40
C4
48
D4
2C
54
9C
04
ENDCHAR
STARTCHAR char191
ENCODING 191
SWIDTH 39 0
DWIDTH 7 0
BBX 5 9 1 -1
BITMAP
20
20
00
20
20
10
08
88
70
ENDCHAR
STARTCHAR char192
ENCODING 192
SWIDTH 39 0
DWIDTH 7 0
BBX 5 9 1 0
BITMAP
40
20
00
70
88
88
F8
88
88
ENDCHAR
STARTCHAR char193
ENCODING 193
SWIDTH 39 0
DWIDTH 7 0
BBX 5 9 1 0
BITMAP
10
20
00
70
88
88
F8
88
88
ENDCHAR
STARTCHAR char194
ENCODING 194
SWIDTH 39 0
DWIDTH 7 0
BBX 5 9 1 0
BITMAP
20
50
00
70
88
88
F8
88
88
ENDCHAR
STARTCHAR char195
ENCODING 195
SWIDTH 39 0
DWIDTH 7 0
BBX 5 9 1 0
BITMAP
50
A0
00
70
88
88
F8
88
88
ENDCHAR
STARTCHAR char196
ENCODING 196
SWIDTH 39 0
DWIDTH 7 0
BBX 5 9 1 0
BITMAP
50
00
70
88
88
88
F8
88
88
ENDCHAR
STARTCHAR char197
ENCODING 197
SWIDTH 39 0
DWIDTH 7 0
BBX 5 9 1 0
BITMAP
20
50
20
70
88
88
F8
88
88
ENDCHAR
STARTCHAR char198
ENCODING 198
SWIDTH 39 0
DWIDTH 7 0
BBX 6 8 1 0
BITMAP
7C
90
90
90
F8
90
90
9C
ENDCHAR
STARTCHAR char199
ENCODING 199
SWIDTH 39 0
DWIDTH 7 0
BBX 5 10 1 -2
BITMAP
78
80
80
80
80
80
80
78
20
60
ENDCHAR
STARTCHAR char200
ENCODING 200
SWIDTH 39 0
DWIDTH 7 0
BBX 5 9 1 0
BITMAP
40
20
00
F8
80
F0
80
80
F8
ENDCHAR
STARTCHAR char201
ENCODING 201
SWIDTH 39 0
DWIDTH 7 0
BBX 5 9 1 0
BITMAP
10
20
00
F8
80
F0
80
80
F8
ENDCHAR
STARTCHAR char202
ENCODING 202
SWIDTH 39 0
DWIDTH 7 0
BBX 5 9 1 0
BITMAP
20
50
00
F8
80
F0
80
80
F8
ENDCHAR
STARTCHAR char203
ENCODING 203
SWIDTH 39 0
DWIDTH 7 0
BBX 5 9 1 0
BITMAP
50
00
F8
80
80
F0
80
80
F8
ENDCHAR
STARTCHAR char204
ENCODING 204
SWIDTH 39 0
DWIDTH 7 0
BBX 3 9 2 0
BITMAP
80
40
00
E0
40
40
40
40
E0
ENDCHAR
STARTCHAR char205
ENCODING 205
SWIDTH 39 0
DWIDTH 7 0
BBX 3 9 2 0
BITMAP
20
40
00
E0
40
40
40
40
E0
ENDCHAR
STARTCHAR char206
ENCODING 206
SWIDTH 39 0
DWIDTH 7 0
BBX 3 9 2 0
BITMAP
40
A0
00
E0
40
40
40
40
E0
ENDCHAR
STARTCHAR char207
ENCODING 207
SWIDTH 39 0
DWIDTH 7 0
BBX 3 9 2 0
BITMAP
A0
00
E0
40
40
40
40
40
E0
ENDCHAR
STARTCHAR char208
ENCODING 208
SWIDTH 39 0
DWIDTH 7 0
BBX 6 8 1 0
BITMAP
70
48
44
F4
44
44
48
70
ENDCHAR
STARTCHAR char209
ENCODING 209
SWIDTH 39 0
DWIDTH 7 0
BBX 5 9 1 0
BITMAP
50
A0
00
88
C8
A8
98
88
88
ENDCHAR
STARTCHAR char210
ENCODING 210
SWIDTH 39 0
DWIDTH 7 0
BBX 5 9 1 0
BITMAP
40
20
00
70
88
88
88
88
70
ENDCHAR
STARTCHAR char211
ENCODING 211
SWIDTH 39 0
DWIDTH 7 0
BBX 5 9 1 0
BITMAP
10
20
00
70
88
88
88
88
70
ENDCHAR
STARTCHAR char212
ENCODING 212
SWIDTH 39 0
DWIDTH 7 0
BBX 5 9 1 0
BITMAP
20
50
00
70
88
88
88
88
70
ENDCHAR
STARTCHAR char213
ENCODING 213
SWIDTH 39 0
DWIDTH 7 0
BBX 5 9 1 0
BITMAP
50
A0
00
70
88
88
88
88
70
ENDCHAR
STARTCHAR char214
ENCODING 214
SWIDTH 39 0
DWIDTH 7 0
BBX 5 9 1 0
BITMAP
50
00
70
88
88
88
88
88
70
ENDCHAR
STARTCHAR char215
ENCODING 215
SWIDTH 39 0
DWIDTH 7 0
BBX 5 5 1 1
BITMAP
88
50
20
50
88
ENDCHAR
STARTCHAR char216
ENCODING 216
SWIDTH 39 0
DWIDTH 7 0
BBX 7 7 0 0
BITMAP
3A
44
4C
54
64
44
B8
ENDCHAR
STARTCHAR char217
ENCODING 217
SWIDTH 39 0
DWIDTH 7 0
BBX 5 9 1 0
BITMAP
40
20
00
88
88
88
88
88
70
ENDCHAR
STARTCHAR char218
ENCODING 218
SWIDTH 39 0
DWIDTH 7 0
BBX 5 9 1 0
BITMAP
10
20
00
88
88
88
88
88
70
ENDCHAR
STARTCHAR char219
ENCODING 219
SWIDTH 39 0
DWIDTH 7 0
BBX 5 9 1 0
BITMAP
20
50
00
88
88
88
88
88
70
ENDCHAR
STARTCHAR char220
ENCODING 220
SWIDTH 39 0
DWIDTH 7 0
BBX 5 9 1 0
BITMAP
50
00
88
88
88
88
88
88
70
ENDCHAR
STARTCHAR char221
ENCODING 221
SWIDTH 39 0
DWIDTH 7 0
BBX 5 9 1 0
BITMAP
10
20
00
88
88
50
20
20
20
ENDCHAR
STARTCHAR char222
ENCODING 222
SWIDTH 39 0
DWIDTH 7 0
BBX 3 7 2 1
BITMAP
80
80
E0
A0
E0
80
80
ENDCHAR
STARTCHAR char223
ENCODING 223
SWIDTH 39 0
DWIDTH 7 0
BBX 5 10 1 -2
BITMAP
60
90
90
A0
90
88
88
B0
80
80
ENDCHAR
STARTCHAR char224
ENCODING 224
SWIDTH 39 0
DWIDTH 7 0
BBX 5 9 1 0
BITMAP
40
20
00
70
08
78
88
88
78
ENDCHAR
STARTCHAR char225
ENCODING 225
SWIDTH 39 0
DWIDTH 7 0
BBX 5 9 1 0
BITMAP
10
20
00
70
08
78
88
88
78
ENDCHAR
STARTCHAR char226
ENCODING 226
SWIDTH 39 0
DWIDTH 7 0
BBX 5 9 1 0
BITMAP
20
50
00
70
08
78
88
88
78
ENDCHAR
STARTCHAR char227
ENCODING 227
SWIDTH 39 0
DWIDTH 7 0
BBX 5 9 1 0
BITMAP
50
A0
00
70
08
78
88
88
78
ENDCHAR
STARTCHAR char228
ENCODING 228
SWIDTH 39 0
DWIDTH 7 0
BBX 5 8 1 0
BITMAP
50
00
70
08
78
88
88
78
ENDCHAR
STARTCHAR char229
ENCODING 229
SWIDTH 39 0
DWIDTH 7 0
BBX 5 9 1 0
BITMAP
20
50
20
70
08
78
88
88
78
ENDCHAR
STARTCHAR char230
ENCODING 230
SWIDTH 39 0
DWIDTH 7 0
BBX 6 6 1 0
BITMAP
68
14
74
9C
90
6C
ENDCHAR
STARTCHAR char231
ENCODING 231
SWIDTH 39 0
DWIDTH 7 0
BBX 4 8 2 -2
BITMAP
70
80
80
80
80
70
20
60
ENDCHAR
STARTCHAR char232
ENCODING 232
SWIDTH 39 0
DWIDTH 7 0
BBX 5 9 1 0
BITMAP
40
20
00
70
88
F8
80
80
78
ENDCHAR
STARTCHAR char233
ENCODING 233
SWIDTH 39 0
DWIDTH 7 0
BBX 5 9 1 0
BITMAP
10
20
00
70
88
F8
80
80
78
ENDCHAR
STARTCHAR char234
ENCODING 234
SWIDTH 39 0
DWIDTH 7 0
BBX 5 9 1 0
BITMAP
20
50
00
70
88
F8
80
80
78
ENDCHAR
STARTCHAR char235
ENCODING 235
SWIDTH 39 0
DWIDTH 7 0
BBX 5 8 1 0
BITMAP
50
00
70
88
F8
80
80
78
ENDCHAR
STARTCHAR char236
ENCODING 236
SWIDTH 39 0
DWIDTH 7 0
BBX 3 8 2 0
BITMAP
80
40
00
C0
40
40
40
E0
ENDCHAR
STARTCHAR char237
ENCODING 237
SWIDTH 39 0
DWIDTH 7 0
BBX 3 8 2 0
BITMAP
20
40
00
C0
40
40
40
E0
ENDCHAR
STARTCHAR char238
ENCODING 238
SWIDTH 39 0
DWIDTH 7 0
BBX 3 8 2 0
BITMAP
40
A0
00
C0
40
40
40
E0
ENDCHAR
STARTCHAR char239
ENCODING 239
SWIDTH 39 0
DWIDTH 7 0
BBX 3 7 2 0
BITMAP
A0
00
C0
40
40
40
E0
ENDCHAR
STARTCHAR char240
ENCODING 240
SWIDTH 39 0
DWIDTH 7 0
BBX 5 8 1 0
BITMAP
50
20
50
08
78
88
88
70
ENDCHAR
STARTCHAR char241
ENCODING 241
SWIDTH 39 0
DWIDTH 7 0
BBX 5 8 1 0
BITMAP
50
A0
00
F0
88
88
88
88
ENDCHAR
STARTCHAR char242
ENCODING 242
SWIDTH 39 0
DWIDTH 7 0
BBX 5 8 1 0
BITMAP
40
20
00
70
88
88
88
70
ENDCHAR
STARTCHAR char243
ENCODING 243
SWIDTH 39 0
DWIDTH 7 0
BBX 5 8 1 0
BITMAP
10
20
00
70
88
88
88
70
ENDCHAR
STARTCHAR char244
ENCODING 244
SWIDTH 39 0
DWIDTH 7 0
BBX 5 8 1 0
BITMAP
20
50
00
70
88
88
88
70
ENDCHAR
STARTCHAR char245
ENCODING 245
SWIDTH 39 0
DWIDTH 7 0
BBX 5 8 1 0
BITMAP
50
A0
00
70
88
88
88
70
ENDCHAR
STARTCHAR char246
ENCODING 246
SWIDTH 39 0
DWIDTH 7 0
BBX 5 7 1 0
BITMAP
50
00
70
88
88
88
70
ENDCHAR
STARTCHAR char247
ENCODING 247
SWIDTH 39 0
DWIDTH 7 0
BBX 5 5 1 1
BITMAP
20
00
F8
00
20
ENDCHAR
STARTCHAR char248
ENCODING 248
SWIDTH 39 0
DWIDTH 7 0
BBX 6 6 1 1
BITMAP
34
48
58
68
48
B0
ENDCHAR
STARTCHAR char249
ENCODING 249
SWIDTH 39 0
DWIDTH 7 0
BBX 5 8 1 0
BITMAP
40
20
00
88
88
88
88
70
ENDCHAR
STARTCHAR char250
ENCODING 250
SWIDTH 39 0
DWIDTH 7 0
BBX 5 8 1 0
BITMAP
10
20
00
88
88
88
88
70
ENDCHAR
STARTCHAR char251
ENCODING 251
SWIDTH 39 0
DWIDTH 7 0
BBX 5 8 1 0
BITMAP
20
50
00
88
88
88
88
70
ENDCHAR
STARTCHAR char252
ENCODING 252
SWIDTH 39 0
DWIDTH 7 0
BBX 5 7 1 0
BITMAP
50
00
88
88
88
88
70
ENDCHAR
STARTCHAR char253
ENCODING 253
SWIDTH 39 0
DWIDTH 7 0
BBX 5 11 1 -2
BITMAP
10
20
00
88
88
88
88
88
78
08
F0
ENDCHAR
STARTCHAR char254
ENCODING 254
SWIDTH 39 0
DWIDTH 7 0
BBX 5 9 1 -1
BITMAP
80
80
F0
88
88
88
F0
80
80
ENDCHAR
STARTCHAR char255
ENCODING 255
SWIDTH 39 0
DWIDTH 7 0
BBX 5 10 1 -2
BITMAP
50
00
88
88
88
88
88
78
08
70
ENDCHAR
STARTCHAR char338
ENCODING 338
SWIDTH 39 0
DWIDTH 7 0
BBX 6 8 1 0
BITMAP
7C
90
90
98
90
90
90
7C
ENDCHAR
STARTCHAR char339
ENCODING 339
SWIDTH 39 0
DWIDTH 7 0
BBX 6 6 1 0
BITMAP
7C
94
9C
90
90
6C
ENDCHAR
STARTCHAR char352
ENCODING 352
SWIDTH 39 0
DWIDTH 7 0
BBX 5 9 1 0
BITMAP
50
20
00
70
88
E0
18
88
70
ENDCHAR
STARTCHAR char353
ENCODING 353
SWIDTH 39 0
DWIDTH 7 0
BBX 4 8 1 0
BITMAP
50
20
00
70
80
60
10
E0
ENDCHAR
STARTCHAR char376
ENCODING 376
SWIDTH 39 0
DWIDTH 7 0
BBX 5 9 1 0
BITMAP
50
00
88
88
50
20
20
20
20
ENDCHAR
STARTCHAR char381
ENCODING 381
SWIDTH 39 0
DWIDTH 7 0
BBX 5 9 1 0
BITMAP
50
20
00
F8
10
20
40
80
F8
ENDCHAR
STARTCHAR char382
ENCODING 382
SWIDTH 39 0
DWIDTH 7 0
BBX 3 8 2 0
BITMAP
A0
40
00
E0
20
40
80
E0
ENDCHAR
STARTCHAR char402
ENCODING 402
SWIDTH 39 0
DWIDTH 7 0
BBX 4 10 2 -2
BITMAP
30
40
40
E0
40
40
40
40
40
80
ENDCHAR
STARTCHAR char710
ENCODING 710
SWIDTH 39 0
DWIDTH 7 0
BBX 3 2 2 6
BITMAP
40
A0
ENDCHAR
STARTCHAR char732
ENCODING 732
SWIDTH 39 0
DWIDTH 7 0
BBX 4 2 1 7
BITMAP
50
A0
ENDCHAR
STARTCHAR char8211
ENCODING 8211
SWIDTH 39 0
DWIDTH 7 0
BBX 3 1 2 3
BITMAP
E0
ENDCHAR
STARTCHAR char8212
ENCODING 8212
SWIDTH 39 0
DWIDTH 7 0
BBX 6 1 1 3
BITMAP
FC
ENDCHAR
STARTCHAR char8216
ENCODING 8216
SWIDTH 39 0
DWIDTH 7 0
BBX 2 3 3 6
BITMAP
40
80
80
ENDCHAR
STARTCHAR char8217
ENCODING 8217
SWIDTH 39 0
DWIDTH 7 0
BBX 2 3 3 6
BITMAP
40
40
80
ENDCHAR
STARTCHAR char8218
ENCODING 8218
SWIDTH 39 0
DWIDTH 7 0
BBX 2 3 3 -1
BITMAP
40
40
80
ENDCHAR
STARTCHAR char8220
ENCODING 8220
SWIDTH 39 0
DWIDTH 7 0
BBX 5 3 1 6
BITMAP
48
90
90
ENDCHAR
STARTCHAR char8221
ENCODING 8221
SWIDTH 39 0
DWIDTH 7 0
BBX 5 3 1 6
BITMAP
48
48
90
ENDCHAR
STARTCHAR char8222
ENCODING 8222
SWIDTH 39 0
DWIDTH 7 0
BBX 5 3 1 -1
BITMAP
48
48
90
ENDCHAR
STARTCHAR char8224
ENCODING 8224
SWIDTH 39 0
DWIDTH 7 0
BBX 5 8 1 0
BITMAP
20
20
F8
20
20
20
20
20
ENDCHAR
STARTCHAR char8225
ENCODING 8225
SWIDTH 39 0
DWIDTH 7 0
BBX 5 8 1 0
BITMAP
20
20
F8
20
20
F8
20
20
ENDCHAR
STARTCHAR char8226
ENCODING 8226
SWIDTH 39 0
DWIDTH 7 0
BBX 4 4 2 2
BITMAP
60
F0
F0
60
ENDCHAR
STARTCHAR char8230
ENCODING 8230
SWIDTH 39 0
DWIDTH 7 0
BBX 5 1 1 0
BITMAP
A8
ENDCHAR
STARTCHAR char8240
ENCODING 8240
SWIDTH 39 0
DWIDTH 7 0
BBX 6 7 1 0
BITMAP
C8
D0
20
40
80
6C
6C
ENDCHAR
STARTCHAR char8249
ENCODING 8249
SWIDTH 39 0
DWIDTH 7 0
BBX 3 5 2 1
BITMAP
20
40
80
40
20
ENDCHAR
STARTCHAR char8250
ENCODING 8250
SWIDTH 39 0
DWIDTH 7 0
BBX 3 5 2 1
BITMAP
80
40
20
40
80
ENDCHAR
STARTCHAR char8364
ENCODING 8364
SWIDTH 39 0
DWIDTH 7 0
BBX 6 8 1 0
BITMAP
38
44
40
F0
40
F0
44
38
ENDCHAR
STARTCHAR char8482
ENCODING 8482
SWIDTH 39 0
DWIDTH 7 0
BBX 6 3 1 5
BITMAP
F4
5C
54
ENDCHAR
ENDFONT
